<?xml version="1.0" encoding="UTF-8" standalone="no"?>
<!DOCTYPE svg PUBLIC "-//W3C//DTD SVG 1.1//EN"
 "http://www.w3.org/Graphics/SVG/1.1/DTD/svg11.dtd">
<!-- Generated by graphviz version 2.44.1 (20200629.0846)
 -->
<!-- Title: dependency&#45;cruiser output Pages: 1 -->
<svg width="1037pt" height="334pt"
 viewBox="0.00 0.00 1037.00 334.00" xmlns="http://www.w3.org/2000/svg" xmlns:xlink="http://www.w3.org/1999/xlink">
<g id="graph0" class="graph" transform="scale(1 1) rotate(0) translate(4 330)">
<title>dependency&#45;cruiser output</title>
<polygon fill="white" stroke="transparent" points="-4,4 -4,-330 1033,-330 1033,4 -4,4"/>
<g id="clust1" class="cluster">
<title>cluster_src</title>
<path fill="#ffffff" stroke="black" stroke-width="2" d="M20,-8C20,-8 1009,-8 1009,-8 1015,-8 1021,-14 1021,-20 1021,-20 1021,-306 1021,-306 1021,-312 1015,-318 1009,-318 1009,-318 20,-318 20,-318 14,-318 8,-312 8,-306 8,-306 8,-20 8,-20 8,-14 14,-8 20,-8"/>
<text text-anchor="middle" x="514.5" y="-306.8" font-family="Helvetica,sans-Serif" font-weight="bold" font-size="9.00">src</text>
</g>
<g id="clust2" class="cluster">
<title>cluster_src/lib</title>
<path fill="#ffffff" stroke="black" stroke-width="2" d="M876,-84C876,-84 1001,-84 1001,-84 1007,-84 1013,-90 1013,-96 1013,-96 1013,-124 1013,-124 1013,-130 1007,-136 1001,-136 1001,-136 876,-136 876,-136 870,-136 864,-130 864,-124 864,-124 864,-96 864,-96 864,-90 870,-84 876,-84"/>
<text text-anchor="middle" x="938.5" y="-124.8" font-family="Helvetica,sans-Serif" font-weight="bold" font-size="9.00">lib</text>
</g>
<g id="clust3" class="cluster">
<title>cluster_src/script</title>
<path fill="#ffffff" stroke="black" stroke-width="2" d="M210,-16C210,-16 844,-16 844,-16 850,-16 856,-22 856,-28 856,-28 856,-280 856,-280 856,-286 850,-292 844,-292 844,-292 210,-292 210,-292 204,-292 198,-286 198,-280 198,-280 198,-28 198,-28 198,-22 204,-16 210,-16"/>
<text text-anchor="middle" x="527" y="-280.8" font-family="Helvetica,sans-Serif" font-weight="bold" font-size="9.00">script</text>
</g>
<g id="clust4" class="cluster">
<title>cluster_src/script/chopper</title>
<path fill="#ffffff" stroke="black" stroke-width="2" d="M624,-24C624,-24 836,-24 836,-24 842,-24 848,-30 848,-36 848,-36 848,-176 848,-176 848,-182 842,-188 836,-188 836,-188 624,-188 624,-188 618,-188 612,-182 612,-176 612,-176 612,-36 612,-36 612,-30 618,-24 624,-24"/>
<text text-anchor="middle" x="730" y="-176.8" font-family="Helvetica,sans-Serif" font-weight="bold" font-size="9.00">chopper</text>
</g>
<g id="clust5" class="cluster">
<title>cluster_src/script/ui&#45;control</title>
<path fill="#ffffff" stroke="black" stroke-width="2" d="M228,-84C228,-84 383,-84 383,-84 389,-84 395,-90 395,-96 395,-96 395,-228 395,-228 395,-234 389,-240 383,-240 383,-240 228,-240 228,-240 222,-240 216,-234 216,-228 216,-228 216,-96 216,-96 216,-90 222,-84 228,-84"/>
<text text-anchor="middle" x="305.5" y="-228.8" font-family="Helvetica,sans-Serif" font-weight="bold" font-size="9.00">ui&#45;control</text>
</g>
<g id="clust6" class="cluster">
<title>cluster_src/script/utl</title>
<path fill="#ffffff" stroke="black" stroke-width="2" d="M218,-24C218,-24 592,-24 592,-24 598,-24 604,-30 604,-36 604,-36 604,-64 604,-64 604,-70 598,-76 592,-76 592,-76 218,-76 218,-76 212,-76 206,-70 206,-64 206,-64 206,-36 206,-36 206,-30 212,-24 218,-24"/>
<text text-anchor="middle" x="405" y="-64.8" font-family="Helvetica,sans-Serif" font-weight="bold" font-size="9.00">utl</text>
</g>
<!-- src/bookmarklet.js -->
<g id="node1" class="node">
<title>src/bookmarklet.js</title>
<g id="a_node1"><a xlink:href="src/bookmarklet.js" xlink:title="no&#45;orphans">
<path fill="#ccffcc" stroke="orange" d="M184,-266C184,-266 120,-266 120,-266 117,-266 114,-263 114,-260 114,-260 114,-254 114,-254 114,-251 117,-248 120,-248 120,-248 184,-248 184,-248 187,-248 190,-251 190,-254 190,-254 190,-260 190,-260 190,-263 187,-266 184,-266"/>
<text text-anchor="middle" x="152" y="-254.8" font-family="Helvetica,sans-Serif" font-size="9.00" fill="orange">bookmarklet.js</text>
</a>
</g>
</g>
<!-- src/lib/require.js -->
<g id="node2" class="node">
<title>src/lib/require.js</title>
<g id="a_node2"><a xlink:href="src/lib/require.js" xlink:title="no&#45;orphans">
<path fill="darkblue" stroke="orange" d="M998.5,-110C998.5,-110 955.5,-110 955.5,-110 952.5,-110 949.5,-107 949.5,-104 949.5,-104 949.5,-98 949.5,-98 949.5,-95 952.5,-92 955.5,-92 955.5,-92 998.5,-92 998.5,-92 1001.5,-92 1004.5,-95 1004.5,-98 1004.5,-98 1004.5,-104 1004.5,-104 1004.5,-107 1001.5,-110 998.5,-110"/>
<text text-anchor="middle" x="977" y="-98.8" font-family="Helvetica,sans-Serif" font-size="9.00" fill="white">require.js</text>
</a>
</g>
</g>
<!-- src/lib/screenfull.js -->
<g id="node3" class="node">
<title>src/lib/screenfull.js</title>
<g id="a_node3"><a xlink:href="src/lib/screenfull.js" xlink:title="screenfull.js">
<path fill="darkblue" stroke="black" d="M931.5,-110C931.5,-110 878.5,-110 878.5,-110 875.5,-110 872.5,-107 872.5,-104 872.5,-104 872.5,-98 872.5,-98 872.5,-95 875.5,-92 878.5,-92 878.5,-92 931.5,-92 931.5,-92 934.5,-92 937.5,-95 937.5,-98 937.5,-98 937.5,-104 937.5,-104 937.5,-107 934.5,-110 931.5,-110"/>
<text text-anchor="middle" x="905" y="-98.8" font-family="Helvetica,sans-Serif" font-size="9.00" fill="white">screenfull.js</text>
</a>
</g>
</g>
<!-- src/script/chopper/chopper.js -->
<g id="node4" class="node">
<title>src/script/chopper/chopper.js</title>
<g id="a_node4"><a xlink:href="src/script/chopper/chopper.js" xlink:title="chopper.js">
<path fill="magenta" stroke="black" d="M741.5,-162C741.5,-162 694.5,-162 694.5,-162 691.5,-162 688.5,-159 688.5,-156 688.5,-156 688.5,-150 688.5,-150 688.5,-147 691.5,-144 694.5,-144 694.5,-144 741.5,-144 741.5,-144 744.5,-144 747.5,-147 747.5,-150 747.5,-150 747.5,-156 747.5,-156 747.5,-159 744.5,-162 741.5,-162"/>
<text text-anchor="middle" x="718" y="-150.8" font-family="Helvetica,sans-Serif" font-size="9.00" fill="white">chopper.js</text>
</a>
</g>
</g>
<!-- src/script/chopper/constants.js -->
<g id="node5" class="node">
<title>src/script/chopper/constants.js</title>
<g id="a_node5"><a xlink:href="src/script/chopper/constants.js" xlink:title="constants.js">
<path fill="magenta" stroke="black" d="M766.5,-50C766.5,-50 713.5,-50 713.5,-50 710.5,-50 707.5,-47 707.5,-44 707.5,-44 707.5,-38 707.5,-38 707.5,-35 710.5,-32 713.5,-32 713.5,-32 766.5,-32 766.5,-32 769.5,-32 772.5,-35 772.5,-38 772.5,-38 772.5,-44 772.5,-44 772.5,-47 769.5,-50 766.5,-50"/>
<text text-anchor="middle" x="740" y="-38.8" font-family="Helvetica,sans-Serif" font-size="9.00" fill="white">constants.js</text>
</a>
</g>
</g>
<!-- src/script/chopper/chopper.js&#45;&gt;src/script/chopper/constants.js -->
<g id="edge1" class="edge">
<title>src/script/chopper/chopper.js&#45;&gt;src/script/chopper/constants.js</title>
<path fill="none" stroke="fuchsia" d="M747.53,-150C753.25,-150 757.5,-150 757.5,-150 757.5,-150 757.5,-56.29 757.5,-56.29"/>
<polygon fill="fuchsia" stroke="fuchsia" points="759.6,-56.29 757.5,-50.29 755.4,-56.29 759.6,-56.29"/>
</g>
<!-- src/script/chopper/gear.js -->
<g id="node6" class="node">
<title>src/script/chopper/gear.js</title>
<g id="a_node6"><a xlink:href="src/script/chopper/gear.js" xlink:title="gear.js">
<path fill="magenta" stroke="black" d="M668,-110C668,-110 626,-110 626,-110 623,-110 620,-107 620,-104 620,-104 620,-98 620,-98 620,-95 623,-92 626,-92 626,-92 668,-92 668,-92 671,-92 674,-95 674,-98 674,-98 674,-104 674,-104 674,-107 671,-110 668,-110"/>
<text text-anchor="middle" x="647" y="-98.8" font-family="Helvetica,sans-Serif" font-size="9.00" fill="white">gear.js</text>
</a>
</g>
</g>
<!-- src/script/chopper/chopper.js&#45;&gt;src/script/chopper/gear.js -->
<g id="edge2" class="edge">
<title>src/script/chopper/chopper.js&#45;&gt;src/script/chopper/gear.js</title>
<path fill="none" stroke="fuchsia" d="M688.3,-147C668.85,-147 647,-147 647,-147 647,-147 647,-116.31 647,-116.31"/>
<polygon fill="fuchsia" stroke="fuchsia" points="649.1,-116.31 647,-110.31 644.9,-116.31 649.1,-116.31"/>
</g>
<!-- src/script/chopper/navigator.js -->
<g id="node7" class="node">
<title>src/script/chopper/navigator.js</title>
<g id="a_node7"><a xlink:href="src/script/chopper/navigator.js" xlink:title="navigator.js">
<path fill="magenta" stroke="black" d="M744,-110C744,-110 692,-110 692,-110 689,-110 686,-107 686,-104 686,-104 686,-98 686,-98 686,-95 689,-92 692,-92 692,-92 744,-92 744,-92 747,-92 750,-95 750,-98 750,-98 750,-104 750,-104 750,-107 747,-110 744,-110"/>
<text text-anchor="middle" x="718" y="-98.8" font-family="Helvetica,sans-Serif" font-size="9.00" fill="white">navigator.js</text>
</a>
</g>
</g>
<!-- src/script/chopper/chopper.js&#45;&gt;src/script/chopper/navigator.js -->
<g id="edge3" class="edge">
<title>src/script/chopper/chopper.js&#45;&gt;src/script/chopper/navigator.js</title>
<path fill="none" stroke="fuchsia" d="M718,-143.94C718,-143.94 718,-116.3 718,-116.3"/>
<polygon fill="fuchsia" stroke="fuchsia" points="720.1,-116.3 718,-110.3 715.9,-116.3 720.1,-116.3"/>
</g>
<!-- src/script/chopper/tokenizer.js -->
<g id="node8" class="node">
<title>src/script/chopper/tokenizer.js</title>
<g id="a_node8"><a xlink:href="src/script/chopper/tokenizer.js" xlink:title="tokenizer.js">
<path fill="magenta" stroke="black" d="M833.5,-110C833.5,-110 782.5,-110 782.5,-110 779.5,-110 776.5,-107 776.5,-104 776.5,-104 776.5,-98 776.5,-98 776.5,-95 779.5,-92 782.5,-92 782.5,-92 833.5,-92 833.5,-92 836.5,-92 839.5,-95 839.5,-98 839.5,-98 839.5,-104 839.5,-104 839.5,-107 836.5,-110 833.5,-110"/>
<text text-anchor="middle" x="808" y="-98.8" font-family="Helvetica,sans-Serif" font-size="9.00" fill="white">tokenizer.js</text>
</a>
</g>
</g>
<!-- src/script/chopper/chopper.js&#45;&gt;src/script/chopper/tokenizer.js -->
<g id="edge4" class="edge">
<title>src/script/chopper/chopper.js&#45;&gt;src/script/chopper/tokenizer.js</title>
<path fill="none" stroke="fuchsia" d="M747.97,-156C774.15,-156 808,-156 808,-156 808,-156 808,-116.08 808,-116.08"/>
<polygon fill="fuchsia" stroke="fuchsia" points="810.1,-116.08 808,-110.08 805.9,-116.08 810.1,-116.08"/>
</g>
<!-- src/script/chopper/gear.js&#45;&gt;src/script/chopper/constants.js -->
<g id="edge6" class="edge">
<title>src/script/chopper/gear.js&#45;&gt;src/script/chopper/constants.js</title>
<path fill="none" stroke="fuchsia" d="M656,-91.75C656,-75.85 656,-45 656,-45 656,-45 701.28,-45 701.28,-45"/>
<polygon fill="fuchsia" stroke="fuchsia" points="701.28,-47.1 707.28,-45 701.28,-42.9 701.28,-47.1"/>
</g>
<!-- src/script/utl/formatting.js -->
<g id="node9" class="node">
<title>src/script/utl/formatting.js</title>
<g id="a_node9"><a xlink:href="src/script/utl/formatting.js" xlink:title="formatting.js">
<path fill="gray" stroke="black" d="M590,-50C590,-50 536,-50 536,-50 533,-50 530,-47 530,-44 530,-44 530,-38 530,-38 530,-35 533,-32 536,-32 536,-32 590,-32 590,-32 593,-32 596,-35 596,-38 596,-38 596,-44 596,-44 596,-47 593,-50 590,-50"/>
<text text-anchor="middle" x="563" y="-38.8" font-family="Helvetica,sans-Serif" font-size="9.00" fill="white">formatting.js</text>
</a>
</g>
</g>
<!-- src/script/chopper/gear.js&#45;&gt;src/script/utl/formatting.js -->
<g id="edge5" class="edge">
<title>src/script/chopper/gear.js&#45;&gt;src/script/utl/formatting.js</title>
<path fill="none" stroke="#aaaaaa" d="M638,-91.89C638,-75.1 638,-41 638,-41 638,-41 602.11,-41 602.11,-41"/>
<polygon fill="#aaaaaa" stroke="#aaaaaa" points="602.11,-38.9 596.11,-41 602.11,-43.1 602.11,-38.9"/>
</g>
<!-- src/script/chopper/navigator.js&#45;&gt;src/script/chopper/constants.js -->
<g id="edge8" class="edge">
<title>src/script/chopper/navigator.js&#45;&gt;src/script/chopper/constants.js</title>
<path fill="none" stroke="fuchsia" d="M728.75,-91.89C728.75,-91.89 728.75,-56.2 728.75,-56.2"/>
<polygon fill="fuchsia" stroke="fuchsia" points="730.85,-56.2 728.75,-50.2 726.65,-56.2 730.85,-56.2"/>
</g>
<!-- src/script/chopper/navigator.js&#45;&gt;src/script/utl/formatting.js -->
<g id="edge7" class="edge">
<title>src/script/chopper/navigator.js&#45;&gt;src/script/utl/formatting.js</title>
<path fill="none" stroke="#aaaaaa" d="M696.75,-91.96C696.75,-74.1 696.75,-36 696.75,-36 696.75,-36 602.06,-36 602.06,-36"/>
<polygon fill="#aaaaaa" stroke="#aaaaaa" points="602.06,-33.9 596.06,-36 602.06,-38.1 602.06,-33.9"/>
</g>
<!-- src/script/chopper/tokenizer.js&#45;&gt;src/script/chopper/constants.js -->
<g id="edge9" class="edge">
<title>src/script/chopper/tokenizer.js&#45;&gt;src/script/chopper/constants.js</title>
<path fill="none" stroke="fuchsia" d="M776.3,-101C769.85,-101 765,-101 765,-101 765,-101 765,-56.11 765,-56.11"/>
<polygon fill="fuchsia" stroke="fuchsia" points="767.1,-56.11 765,-50.11 762.9,-56.11 767.1,-56.11"/>
</g>
<!-- src/script/ui&#45;control/actions.js -->
<g id="node10" class="node">
<title>src/script/ui&#45;control/actions.js</title>
<g id="a_node10"><a xlink:href="src/script/ui-control/actions.js" xlink:title="actions.js">
<path fill="darkgreen" stroke="black" d="M380.5,-162C380.5,-162 337.5,-162 337.5,-162 334.5,-162 331.5,-159 331.5,-156 331.5,-156 331.5,-150 331.5,-150 331.5,-147 334.5,-144 337.5,-144 337.5,-144 380.5,-144 380.5,-144 383.5,-144 386.5,-147 386.5,-150 386.5,-150 386.5,-156 386.5,-156 386.5,-159 383.5,-162 380.5,-162"/>
<text text-anchor="middle" x="359" y="-150.8" font-family="Helvetica,sans-Serif" font-size="9.00" fill="white">actions.js</text>
</a>
</g>
</g>
<!-- src/script/ui&#45;control/actions.js&#45;&gt;src/lib/screenfull.js -->
<g id="edge10" class="edge">
<title>src/script/ui&#45;control/actions.js&#45;&gt;src/lib/screenfull.js</title>
<path fill="none" stroke="darkblue" d="M368.17,-143.91C368.17,-136.41 368.17,-127 368.17,-127 368.17,-127 905,-127 905,-127 905,-127 905,-116.09 905,-116.09"/>
<polygon fill="darkblue" stroke="darkblue" points="907.1,-116.09 905,-110.09 902.9,-116.09 907.1,-116.09"/>
</g>
<!-- src/script/ui&#45;control/actions.js&#45;&gt;src/script/chopper/chopper.js -->
<g id="edge11" class="edge">
<title>src/script/ui&#45;control/actions.js&#45;&gt;src/script/chopper/chopper.js</title>
<path fill="none" stroke="fuchsia" d="M386.57,-158C386.57,-158 682.33,-158 682.33,-158"/>
<polygon fill="fuchsia" stroke="fuchsia" points="682.33,-160.1 688.33,-158 682.33,-155.9 682.33,-160.1"/>
</g>
<!-- src/script/ui&#45;control/actions.js&#45;&gt;src/script/utl/formatting.js -->
<g id="edge15" class="edge">
<title>src/script/ui&#45;control/actions.js&#45;&gt;src/script/utl/formatting.js</title>
<path fill="none" stroke="#aaaaaa" d="M386.51,-154C442.2,-154 563,-154 563,-154 563,-154 563,-56.25 563,-56.25"/>
<polygon fill="#aaaaaa" stroke="#aaaaaa" points="565.1,-56.25 563,-50.25 560.9,-56.25 565.1,-56.25"/>
</g>
<!-- src/script/ui&#45;control/constants.js -->
<g id="node11" class="node">
<title>src/script/ui&#45;control/constants.js</title>
<g id="a_node11"><a xlink:href="src/script/ui-control/constants.js" xlink:title="constants.js">
<path fill="darkgreen" stroke="black" d="M283.5,-110C283.5,-110 230.5,-110 230.5,-110 227.5,-110 224.5,-107 224.5,-104 224.5,-104 224.5,-98 224.5,-98 224.5,-95 227.5,-92 230.5,-92 230.5,-92 283.5,-92 283.5,-92 286.5,-92 289.5,-95 289.5,-98 289.5,-98 289.5,-104 289.5,-104 289.5,-107 286.5,-110 283.5,-110"/>
<text text-anchor="middle" x="257" y="-98.8" font-family="Helvetica,sans-Serif" font-size="9.00" fill="white">constants.js</text>
</a>
</g>
</g>
<!-- src/script/ui&#45;control/actions.js&#45;&gt;src/script/ui&#45;control/constants.js -->
<g id="edge12" class="edge">
<title>src/script/ui&#45;control/actions.js&#45;&gt;src/script/ui&#45;control/constants.js</title>
<path fill="none" stroke="darkgreen" d="M331.15,-151C304.34,-151 267.83,-151 267.83,-151 267.83,-151 267.83,-116.17 267.83,-116.17"/>
<polygon fill="darkgreen" stroke="darkgreen" points="269.93,-116.17 267.83,-110.17 265.73,-116.17 269.93,-116.17"/>
</g>
<!-- src/script/ui&#45;control/themeswitcher.js -->
<g id="node12" class="node">
<title>src/script/ui&#45;control/themeswitcher.js</title>
<g id="a_node12"><a xlink:href="src/script/ui-control/themeswitcher.js" xlink:title="themeswitcher.js">
<path fill="darkgreen" stroke="black" d="M380.5,-110C380.5,-110 307.5,-110 307.5,-110 304.5,-110 301.5,-107 301.5,-104 301.5,-104 301.5,-98 301.5,-98 301.5,-95 304.5,-92 307.5,-92 307.5,-92 380.5,-92 380.5,-92 383.5,-92 386.5,-95 386.5,-98 386.5,-98 386.5,-104 386.5,-104 386.5,-107 383.5,-110 380.5,-110"/>
<text text-anchor="middle" x="344" y="-98.8" font-family="Helvetica,sans-Serif" font-size="9.00" fill="white">themeswitcher.js</text>
</a>
</g>
</g>
<!-- src/script/ui&#45;control/actions.js&#45;&gt;src/script/ui&#45;control/themeswitcher.js -->
<g id="edge13" class="edge">
<title>src/script/ui&#45;control/actions.js&#45;&gt;src/script/ui&#45;control/themeswitcher.js</title>
<path fill="none" stroke="darkgreen" d="M349.83,-143.94C349.83,-143.94 349.83,-116.3 349.83,-116.3"/>
<polygon fill="darkgreen" stroke="darkgreen" points="351.93,-116.3 349.83,-110.3 347.73,-116.3 351.93,-116.3"/>
</g>
<!-- src/script/utl/browserutl.js -->
<g id="node13" class="node">
<title>src/script/utl/browserutl.js</title>
<g id="a_node13"><a xlink:href="src/script/utl/browserutl.js" xlink:title="browserutl.js">
<path fill="gray" stroke="black" d="M356,-50C356,-50 300,-50 300,-50 297,-50 294,-47 294,-44 294,-44 294,-38 294,-38 294,-35 297,-32 300,-32 300,-32 356,-32 356,-32 359,-32 362,-35 362,-38 362,-38 362,-44 362,-44 362,-47 359,-50 356,-50"/>
<text text-anchor="middle" x="328" y="-38.8" font-family="Helvetica,sans-Serif" font-size="9.00" fill="white">browserutl.js</text>
</a>
</g>
</g>
<!-- src/script/ui&#45;control/actions.js&#45;&gt;src/script/utl/browserutl.js -->
<g id="edge14" class="edge">
<title>src/script/ui&#45;control/actions.js&#45;&gt;src/script/utl/browserutl.js</title>
<path fill="none" stroke="#aaaaaa" d="M331.4,-147C315.89,-147 299.62,-147 299.62,-147 299.62,-147 299.62,-56.04 299.62,-56.04"/>
<polygon fill="#aaaaaa" stroke="#aaaaaa" points="301.73,-56.04 299.62,-50.04 297.53,-56.04 301.73,-56.04"/>
</g>
<!-- src/script/utl/gaga.js -->
<g id="node14" class="node">
<title>src/script/utl/gaga.js</title>
<g id="a_node14"><a xlink:href="src/script/utl/gaga.js" xlink:title="gaga.js">
<path fill="gray" stroke="black" d="M422,-50C422,-50 380,-50 380,-50 377,-50 374,-47 374,-44 374,-44 374,-38 374,-38 374,-35 377,-32 380,-32 380,-32 422,-32 422,-32 425,-32 428,-35 428,-38 428,-38 428,-44 428,-44 428,-47 425,-50 422,-50"/>
<text text-anchor="middle" x="401" y="-38.8" font-family="Helvetica,sans-Serif" font-size="9.00" fill="white">gaga.js</text>
</a>
</g>
</g>
<!-- src/script/ui&#45;control/actions.js&#45;&gt;src/script/utl/gaga.js -->
<g id="edge16" class="edge">
<title>src/script/ui&#45;control/actions.js&#45;&gt;src/script/utl/gaga.js</title>
<path fill="none" stroke="#aaaaaa" d="M386.53,-151C394.27,-151 400.62,-151 400.62,-151 400.62,-151 400.62,-56 400.62,-56"/>
<polygon fill="#aaaaaa" stroke="#aaaaaa" points="402.73,-56 400.62,-50 398.53,-56 402.73,-56"/>
</g>
<!-- src/script/utl/stopwatch.js -->
<g id="node15" class="node">
<title>src/script/utl/stopwatch.js</title>
<g id="a_node15"><a xlink:href="src/script/utl/stopwatch.js" xlink:title="stopwatch.js">
<path fill="gray" stroke="black" d="M275.5,-50C275.5,-50 220.5,-50 220.5,-50 217.5,-50 214.5,-47 214.5,-44 214.5,-44 214.5,-38 214.5,-38 214.5,-35 217.5,-32 220.5,-32 220.5,-32 275.5,-32 275.5,-32 278.5,-32 281.5,-35 281.5,-38 281.5,-38 281.5,-44 281.5,-44 281.5,-47 278.5,-50 275.5,-50"/>
<text text-anchor="middle" x="248" y="-38.8" font-family="Helvetica,sans-Serif" font-size="9.00" fill="white">stopwatch.js</text>
</a>
</g>
</g>
<!-- src/script/ui&#45;control/actions.js&#45;&gt;src/script/utl/stopwatch.js -->
<g id="edge17" class="edge">
<title>src/script/ui&#45;control/actions.js&#45;&gt;src/script/utl/stopwatch.js</title>
<path fill="none" stroke="#aaaaaa" d="M331.44,-154C290.78,-154 219.5,-154 219.5,-154 219.5,-154 219.5,-56.25 219.5,-56.25"/>
<polygon fill="#aaaaaa" stroke="#aaaaaa" points="221.6,-56.25 219.5,-50.25 217.4,-56.25 221.6,-56.25"/>
</g>
<!-- src/script/ui&#45;control/themeswitcher.js&#45;&gt;src/script/utl/formatting.js -->
<g id="edge21" class="edge">
<title>src/script/ui&#45;control/themeswitcher.js&#45;&gt;src/script/utl/formatting.js</title>
<path fill="none" stroke="#aaaaaa" d="M386.95,-101C446.39,-101 546.5,-101 546.5,-101 546.5,-101 546.5,-56.11 546.5,-56.11"/>
<polygon fill="#aaaaaa" stroke="#aaaaaa" points="548.6,-56.11 546.5,-50.11 544.4,-56.11 548.6,-56.11"/>
</g>
<!-- src/script/ui&#45;control/eventmap.js -->
<g id="node16" class="node">
<title>src/script/ui&#45;control/eventmap.js</title>
<g id="a_node16"><a xlink:href="src/script/ui-control/eventmap.js" xlink:title="eventmap.js">
<path fill="darkgreen" stroke="black" d="M381,-214C381,-214 327,-214 327,-214 324,-214 321,-211 321,-208 321,-208 321,-202 321,-202 321,-199 324,-196 327,-196 327,-196 381,-196 381,-196 384,-196 387,-199 387,-202 387,-202 387,-208 387,-208 387,-211 384,-214 381,-214"/>
<text text-anchor="middle" x="354" y="-202.8" font-family="Helvetica,sans-Serif" font-size="9.00" fill="white">eventmap.js</text>
</a>
</g>
</g>
<!-- src/script/ui&#45;control/eventmap.js&#45;&gt;src/script/ui&#45;control/actions.js -->
<g id="edge20" class="edge">
<title>src/script/ui&#45;control/eventmap.js&#45;&gt;src/script/ui&#45;control/actions.js</title>
<path fill="none" stroke="darkgreen" d="M359,-195.94C359,-195.94 359,-168.3 359,-168.3"/>
<polygon fill="darkgreen" stroke="darkgreen" points="361.1,-168.3 359,-162.3 356.9,-168.3 361.1,-168.3"/>
</g>
<!-- src/script/ui&#45;control/eventmap.js&#45;&gt;src/script/utl/browserutl.js -->
<g id="edge18" class="edge">
<title>src/script/ui&#45;control/eventmap.js&#45;&gt;src/script/utl/browserutl.js</title>
<path fill="none" stroke="#aaaaaa" d="M320.95,-205C308.71,-205 297.75,-205 297.75,-205 297.75,-205 297.75,-56.29 297.75,-56.29"/>
<polygon fill="#aaaaaa" stroke="#aaaaaa" points="299.85,-56.29 297.75,-50.29 295.65,-56.29 299.85,-56.29"/>
</g>
<!-- src/script/ui&#45;control/eventmap.js&#45;&gt;src/script/utl/gaga.js -->
<g id="edge19" class="edge">
<title>src/script/ui&#45;control/eventmap.js&#45;&gt;src/script/utl/gaga.js</title>
<path fill="none" stroke="#aaaaaa" d="M387.07,-205C399.08,-205 409.75,-205 409.75,-205 409.75,-205 409.75,-56.29 409.75,-56.29"/>
<polygon fill="#aaaaaa" stroke="#aaaaaa" points="411.85,-56.29 409.75,-50.29 407.65,-56.29 411.85,-56.29"/>
</g>
<!-- src/script/utl/paramslikker.js -->
<g id="node17" class="node">
<title>src/script/utl/paramslikker.js</title>
<g id="a_node17"><a xlink:href="src/script/utl/paramslikker.js" xlink:title="paramslikker.js">
<path fill="gray" stroke="black" d="M512,-50C512,-50 446,-50 446,-50 443,-50 440,-47 440,-44 440,-44 440,-38 440,-38 440,-35 443,-32 446,-32 446,-32 512,-32 512,-32 515,-32 518,-35 518,-38 518,-38 518,-44 518,-44 518,-47 515,-50 512,-50"/>
<text text-anchor="middle" x="479" y="-38.8" font-family="Helvetica,sans-Serif" font-size="9.00" fill="white">paramslikker.js</text>
</a>
</g>
</g>
<!-- src/script/wordywordy.js -->
<g id="node18" class="node">
<title>src/script/wordywordy.js</title>
<g id="a_node18"><a xlink:href="src/script/wordywordy.js" xlink:title="wordywordy.js">
<path fill="#ffffcc" stroke="black" d="M385.5,-266C385.5,-266 322.5,-266 322.5,-266 319.5,-266 316.5,-263 316.5,-260 316.5,-260 316.5,-254 316.5,-254 316.5,-251 319.5,-248 322.5,-248 322.5,-248 385.5,-248 385.5,-248 388.5,-248 391.5,-251 391.5,-254 391.5,-254 391.5,-260 391.5,-260 391.5,-263 388.5,-266 385.5,-266"/>
<text text-anchor="middle" x="354" y="-254.8" font-family="Helvetica,sans-Serif" font-size="9.00">wordywordy.js</text>
</a>
</g>
</g>
<!-- src/script/wordywordy.js&#45;&gt;src/script/utl/formatting.js -->
<g id="edge26" class="edge">
<title>src/script/wordywordy.js&#45;&gt;src/script/utl/formatting.js</title>
<path fill="none" stroke="#aaaaaa" d="M391.74,-261C455.94,-261 579.5,-261 579.5,-261 579.5,-261 579.5,-56.17 579.5,-56.17"/>
<polygon fill="#aaaaaa" stroke="#aaaaaa" points="581.6,-56.17 579.5,-50.17 577.4,-56.17 581.6,-56.17"/>
</g>
<!-- src/script/wordywordy.js&#45;&gt;src/script/ui&#45;control/actions.js -->
<g id="edge22" class="edge">
<title>src/script/wordywordy.js&#45;&gt;src/script/ui&#45;control/actions.js</title>
<path fill="none" stroke="darkgreen" d="M316.43,-252C311.99,-252 309,-252 309,-252 309,-252 309,-158 309,-158 309,-158 325.37,-158 325.37,-158"/>
<polygon fill="darkgreen" stroke="darkgreen" points="325.37,-160.1 331.37,-158 325.37,-155.9 325.37,-160.1"/>
</g>
<!-- src/script/wordywordy.js&#45;&gt;src/script/ui&#45;control/constants.js -->
<g id="edge23" class="edge">
<title>src/script/wordywordy.js&#45;&gt;src/script/ui&#45;control/constants.js</title>
<path fill="none" stroke="darkgreen" d="M316.29,-261C285.19,-261 246.17,-261 246.17,-261 246.17,-261 246.17,-116.06 246.17,-116.06"/>
<polygon fill="darkgreen" stroke="darkgreen" points="248.27,-116.06 246.17,-110.06 244.07,-116.06 248.27,-116.06"/>
</g>
<!-- src/script/wordywordy.js&#45;&gt;src/script/utl/browserutl.js -->
<g id="edge25" class="edge">
<title>src/script/wordywordy.js&#45;&gt;src/script/utl/browserutl.js</title>
<path fill="none" stroke="#aaaaaa" d="M316.2,-257C305.1,-257 295.88,-257 295.88,-257 295.88,-257 295.88,-56.01 295.88,-56.01"/>
<polygon fill="#aaaaaa" stroke="#aaaaaa" points="297.98,-56.01 295.88,-50.01 293.78,-56.01 297.98,-56.01"/>
</g>
<!-- src/script/wordywordy.js&#45;&gt;src/script/utl/gaga.js -->
<g id="edge27" class="edge">
<title>src/script/wordywordy.js&#45;&gt;src/script/utl/gaga.js</title>
<path fill="none" stroke="#aaaaaa" d="M391.74,-252C406.01,-252 418.88,-252 418.88,-252 418.88,-252 418.88,-56.07 418.88,-56.07"/>
<polygon fill="#aaaaaa" stroke="#aaaaaa" points="420.98,-56.07 418.88,-50.07 416.78,-56.07 420.98,-56.07"/>
</g>
<!-- src/script/wordywordy.js&#45;&gt;src/script/ui&#45;control/eventmap.js -->
<g id="edge24" class="edge">
<title>src/script/wordywordy.js&#45;&gt;src/script/ui&#45;control/eventmap.js</title>
<path fill="none" stroke="darkgreen" d="M354,-247.94C354,-247.94 354,-220.3 354,-220.3"/>
<polygon fill="darkgreen" stroke="darkgreen" points="356.1,-220.3 354,-214.3 351.9,-220.3 356.1,-220.3"/>
</g>
<!-- src/script/wordywordy.js&#45;&gt;src/script/utl/paramslikker.js -->
<g id="edge28" class="edge">
<title>src/script/wordywordy.js&#45;&gt;src/script/utl/paramslikker.js</title>
<path fill="none" stroke="#aaaaaa" d="M391.5,-257C428.32,-257 479,-257 479,-257 479,-257 479,-56.01 479,-56.01"/>
<polygon fill="#aaaaaa" stroke="#aaaaaa" points="481.1,-56.01 479,-50.01 476.9,-56.01 481.1,-56.01"/>
</g>
<!-- src/service&#45;worker.js -->
<g id="node19" class="node">
<title>src/service&#45;worker.js</title>
<g id="a_node19"><a xlink:href="src/service-worker.js" xlink:title="no&#45;orphans">
<path fill="#ccffcc" stroke="orange" d="M96,-266C96,-266 22,-266 22,-266 19,-266 16,-263 16,-260 16,-260 16,-254 16,-254 16,-251 19,-248 22,-248 22,-248 96,-248 96,-248 99,-248 102,-251 102,-254 102,-254 102,-260 102,-260 102,-263 99,-266 96,-266"/>
<text text-anchor="middle" x="59" y="-254.8" font-family="Helvetica,sans-Serif" font-size="9.00" fill="orange">service&#45;worker.js</text>
</a>
</g>
</g>
</g>
</svg>
